<svg xmlns="http://www.w3.org/2000/svg" xmlns:xlink="http://www.w3.org/1999/xlink" width="500" zoomAndPan="magnify"
     viewBox="0 0 375 374.999991" height="500" preserveAspectRatio="xMidYMid meet" version="1.0">
    <defs>
        <g/>
        <clipPath id="5602a8142d">
            <path d="M 27 126 L 164.535156 126 L 164.535156 280.933594 L 27 280.933594 Z M 27 126 "
                  clip-rule="nonzero"/>
        </clipPath>
        <clipPath id="34734f58c9">
            <path d="M 4.785156 133 L 45 133 L 45 280.933594 L 4.785156 280.933594 Z M 4.785156 133 "
                  clip-rule="nonzero"/>
        </clipPath>
    </defs>
    <g clip-path="url(#5602a8142d)">
        <path fill="#4d3e3e"
              d="M 164.261719 240.15625 C 155.222656 243.976562 146.140625 247.652344 137.046875 251.304688 L 123.390625 256.714844 C 121.109375 257.609375 118.855469 258.574219 116.511719 259.28125 C 114.179688 260 111.832031 260.691406 109.515625 261.464844 L 53.730469 279.585938 L 49.972656 280.804688 L 49.382812 276.898438 L 27.90625 134.847656 L 27.363281 131.246094 L 30.996094 131 L 88.925781 127.085938 L 96.164062 126.585938 C 98.578125 126.375 100.984375 126.121094 103.414062 126.183594 L 117.964844 126.199219 C 127.664062 126.222656 137.371094 126.328125 147.082031 126.519531 C 137.484375 128.011719 127.878906 129.421875 118.269531 130.75 L 103.855469 132.722656 C 101.457031 133.109375 99.035156 133.183594 96.621094 133.300781 L 89.378906 133.777344 L 31.449219 137.691406 L 34.535156 133.84375 L 56.011719 275.894531 L 51.660156 273.207031 L 107.441406 255.089844 C 109.773438 254.355469 112.078125 253.53125 114.390625 252.746094 C 116.699219 251.9375 119.09375 251.398438 121.460938 250.78125 L 135.691406 247.132812 C 145.195312 244.742188 154.707031 242.382812 164.261719 240.15625 "
              fill-opacity="1" fill-rule="nonzero"/>
    </g>
    <path fill="#4d3e3e"
          d="M 61.972656 157.453125 L 57.855469 130.203125 C 56.617188 122.019531 58.664062 113.957031 63.621094 107.503906 C 68.578125 101.046875 75.847656 96.980469 84.089844 96.0625 C 100.964844 94.183594 116.765625 106.304688 119.304688 123.085938 L 123.421875 150.335938 L 116.792969 151.335938 L 112.675781 124.085938 C 110.667969 110.820312 98.195312 101.230469 84.832031 102.722656 C 78.421875 103.441406 72.777344 106.585938 68.9375 111.585938 C 65.101562 116.578125 63.519531 122.835938 64.484375 129.199219 L 68.605469 156.449219 L 61.972656 157.453125 "
          fill-opacity="1" fill-rule="nonzero"/>
    <path fill="#4d3e3e"
          d="M 111.449219 151.800781 C 112.167969 156.554688 116.628906 159.976562 121.410156 159.445312 C 126.191406 158.910156 129.484375 154.625 128.765625 149.871094 C 128.046875 145.117188 123.589844 141.695312 118.808594 142.226562 C 114.027344 142.761719 110.730469 147.046875 111.449219 151.800781 "
          fill-opacity="1" fill-rule="nonzero"/>
    <path fill="#4d3e3e"
          d="M 56.628906 157.914062 C 57.347656 162.667969 61.808594 166.089844 66.589844 165.558594 C 71.371094 165.023438 74.664062 160.738281 73.945312 155.984375 C 73.226562 151.230469 68.769531 147.808594 63.988281 148.34375 C 59.207031 148.875 55.910156 153.160156 56.628906 157.914062 "
          fill-opacity="1" fill-rule="nonzero"/>
    <g clip-path="url(#34734f58c9)">
        <path fill="#4d3e3e"
              d="M 21.765625 133.371094 C 22.0625 136.289062 22.296875 139.199219 22.488281 142.109375 C 22.710938 145.019531 22.839844 147.921875 22.988281 150.824219 C 23.039062 152.273438 23.191406 153.730469 23.160156 155.175781 C 23.132812 155.894531 22.984375 156.601562 22.898438 157.316406 C 22.800781 158.03125 22.738281 158.746094 22.671875 159.460938 L 21.859375 168.054688 L 18.617188 202.425781 L 12.132812 271.160156 L 7.132812 267.933594 C 7.691406 267.625 8.0625 267.449219 8.519531 267.238281 C 8.957031 267.03125 9.390625 266.84375 9.828125 266.664062 C 10.699219 266.304688 11.582031 265.988281 12.476562 265.703125 C 14.265625 265.152344 16.082031 264.675781 17.949219 264.34375 C 19.828125 264.078125 21.757812 264.242188 23.640625 264.460938 C 25.523438 264.710938 27.378906 265.148438 29.15625 265.761719 C 32.722656 266.992188 35.894531 269.050781 38.457031 271.542969 C 41.03125 274.039062 43.03125 276.953125 44.582031 280.007812 C 42.269531 277.472656 39.667969 275.277344 36.875 273.597656 C 34.070312 271.933594 31.027344 270.910156 27.988281 270.515625 C 26.460938 270.332031 24.9375 270.308594 23.425781 270.433594 C 21.914062 270.527344 20.4375 270.898438 18.957031 271.132812 C 17.460938 271.296875 15.960938 271.609375 14.515625 272.089844 C 13.789062 272.320312 13.070312 272.578125 12.375 272.867188 C 12.027344 273.007812 11.679688 273.160156 11.347656 273.316406 C 11.03125 273.457031 10.640625 273.65625 10.457031 273.757812 L 4.863281 276.839844 L 5.457031 270.53125 L 11.941406 201.792969 L 15.1875 167.425781 L 15.996094 158.832031 C 16.0625 158.117188 16.140625 157.402344 16.179688 156.683594 C 16.226562 155.964844 16.210938 155.242188 16.320312 154.53125 C 16.558594 153.105469 16.980469 151.703125 17.300781 150.285156 C 17.992188 147.460938 18.660156 144.636719 19.425781 141.816406 C 20.15625 138.996094 20.929688 136.183594 21.765625 133.371094 "
              fill-opacity="1" fill-rule="nonzero"/>
    </g>
    <g fill="#4d3e3e" fill-opacity="1">
        <g transform="translate(119.48065, 206.909819)">
            <g>
                <path d="M 57.648438 -1.988281 C 48.96875 -1.566406 40.953125 -6.707031 33.160156 -11.75 C 32.15625 -12.476562 31.15625 -13.089844 30.15625 -13.707031 L 30.882812 -14.601562 C 37.453125 -22.234375 42.246094 -33.929688 44.65625 -48.367188 C 47.8125 -66.089844 44.449219 -74.882812 41.144531 -79.109375 C 37.730469 -83.332031 33.679688 -84.164062 31.609375 -84.304688 C 26.164062 -84.542969 20.277344 -82.046875 15.234375 -77.1875 C 8.617188 -70.859375 3.746094 -61.335938 0.621094 -48.613281 C -3.996094 -29.203125 1.601562 -18.753906 1.832031 -18.328125 C 2.066406 -17.902344 2.503906 -17.808594 2.933594 -17.933594 C 3.359375 -18.167969 3.449219 -18.714844 3.21875 -19.03125 C 3.214844 -19.140625 -2.378906 -29.480469 2.265625 -48.238281 C 5.195312 -60.410156 10.058594 -70.042969 16.253906 -76.03125 C 20.460938 -79.988281 25.371094 -82.449219 29.816406 -82.71875 C 29.929688 -82.613281 30.039062 -82.617188 30.148438 -82.621094 C 30.582031 -82.636719 32.761719 -82.5 34.921875 -79.859375 C 38.109375 -75.847656 40.847656 -66.378906 35.675781 -44.234375 C 32.578125 -30.75 28.429688 -22.230469 24.816406 -16.992188 C 19.941406 -19.53125 15.207031 -21.207031 10.457031 -20.273438 C 7.761719 -19.738281 5.753906 -18.144531 5.074219 -15.835938 C 4.40625 -13.3125 5.273438 -10.410156 7.300781 -8.417969 C 9.4375 -6.539062 12.40625 -5.558594 15.992188 -5.582031 C 19.144531 -5.589844 24.074219 -7.507812 29 -12.578125 L 32.339844 -10.417969 C 40.246094 -5.269531 48.371094 -0.0195312 57.488281 -0.351562 L 57.707031 -0.359375 C 58.140625 -0.375 58.453125 -0.714844 58.433594 -1.257812 C 58.417969 -1.691406 58.082031 -2.003906 57.648438 -1.988281 Z M 16.949219 -9.203125 C 13.863281 -7.351562 12.003906 -7.71875 11.234375 -7.910156 C 10.132812 -8.304688 9.242188 -8.921875 8.453125 -9.65625 C 6.769531 -11.117188 6.140625 -13.484375 6.617188 -15.351562 C 7.203125 -17.109375 8.570312 -18.355469 10.730469 -18.761719 C 11.382812 -18.785156 11.921875 -18.914062 12.574219 -18.9375 C 16.261719 -19.070312 20.007812 -17.683594 23.78125 -15.648438 C 20.980469 -11.960938 18.550781 -10.023438 16.949219 -9.203125 Z M 16.949219 -9.203125 "/>
            </g>
        </g>
    </g>
    <g fill="#4d3e3e" fill-opacity="1">
        <g transform="translate(169.849431, 205.076926)">
            <g>
                <path d="M 4.65625 -6.472656 C 4.421875 -6.898438 4.085938 -7.214844 3.535156 -7.410156 C 3.097656 -7.503906 2.554688 -7.484375 2.238281 -7.148438 L 1.175781 -6.566406 C -0.101562 -5.757812 -0.585938 -4.109375 0.222656 -2.835938 L 1.265625 -1.023438 C 1.613281 -0.492188 2.277344 -0.191406 2.820312 -0.210938 C 3.144531 -0.222656 3.355469 -0.339844 3.679688 -0.460938 L 4.421875 -0.921875 C 5.808594 -1.734375 6.394531 -3.492188 5.578125 -4.984375 Z M 4.65625 -6.472656 "/>
            </g>
        </g>
    </g>
    <g fill="#4d3e3e" fill-opacity="1">
        <g transform="translate(191.017347, 204.306636)">
            <g>
                <path d="M 50.339844 -77.378906 C 49.042969 -80.15625 47.132812 -81.828125 44.503906 -82.382812 C 41.105469 -83.128906 37.339844 -82.121094 33.5 -80.136719 L 33.503906 -80.027344 C 25.292969 -75.597656 17.160156 -66.0625 12.46875 -57.628906 C 14.183594 -64.324219 16.234375 -70.59375 18.636719 -76.332031 C 19.539062 -78.429688 19.34375 -80.816406 18.183594 -82.839844 L 17.367188 -84.332031 C 16.910156 -84.964844 16.128906 -85.480469 15.261719 -85.449219 C 14.503906 -85.3125 13.761719 -84.851562 13.355469 -84.078125 C 4.6875 -65.390625 -0.226562 -36.082031 -0.128906 -3.582031 C -0.164062 -1.515625 1.101562 0.394531 2.972656 1.085938 L 3.859375 1.488281 C 4.078125 1.589844 4.410156 1.6875 4.734375 1.675781 C 5.167969 1.660156 5.597656 1.535156 5.917969 1.304688 C 6.554688 0.847656 6.960938 0.0742188 6.933594 -0.6875 C 6.410156 -18.058594 7.667969 -34.195312 10.507812 -48.753906 L 10.503906 -48.863281 C 12.578125 -57.632812 23.65625 -72.820312 34.207031 -78.640625 C 34.3125 -78.644531 40.53125 -81.042969 43.351562 -78.210938 C 46.050781 -75.699219 45.566406 -56.226562 34.960938 -33.992188 C 32.535156 -28.902344 29.878906 -24.242188 27.199219 -20.230469 C 18.949219 -19.929688 12.882812 -16.339844 10.519531 -12.664062 C 8.980469 -10.109375 8.859375 -7.496094 10.140625 -5.152344 C 11.304688 -3.019531 13.1875 -2 15.46875 -2.085938 L 15.683594 -2.09375 C 21.332031 -2.296875 29.136719 -8.777344 35.855469 -18.371094 L 35.964844 -18.375 C 46.382812 -18.753906 52.21875 -22.769531 52.535156 -23 C 52.851562 -23.226562 52.941406 -23.773438 52.710938 -24.09375 C 52.480469 -24.519531 51.933594 -24.609375 51.617188 -24.269531 C 51.511719 -24.265625 46.3125 -20.707031 36.988281 -20.042969 C 38.328125 -22.046875 39.5625 -24.050781 40.785156 -26.269531 C 48.214844 -40.125 55.527344 -66.261719 50.339844 -77.378906 Z M 22.121094 -13.414062 C 18.371094 -8.929688 14.769531 -6.296875 12.59375 -6.4375 C 12.15625 -6.421875 11.390625 -6.609375 10.914062 -7.789062 C 10.640625 -9.300781 11.242188 -10.734375 11.855469 -11.734375 C 13.914062 -14.964844 19.015625 -18.085938 26.066406 -18.558594 C 24.722656 -16.660156 23.476562 -14.984375 22.121094 -13.414062 Z M 22.121094 -13.414062 "/>
            </g>
        </g>
    </g>
    <g fill="#4d3e3e" fill-opacity="1">
        <g transform="translate(242.471661, 202.434241)">
            <g>
                <path d="M 43.90625 -24.097656 C 43.574219 -24.304688 43.039062 -24.066406 42.832031 -23.734375 C 38.777344 -15.757812 35.589844 -10.753906 32.984375 -7.613281 C 32.988281 -7.503906 32.878906 -7.5 32.878906 -7.5 C 32.355469 -7.046875 30.664062 -5.679688 29.5625 -6.074219 C 29.011719 -6.273438 28.5625 -6.691406 28.210938 -7.332031 C 26.210938 -11.605469 28.664062 -24.847656 34.667969 -42.023438 C 35.269531 -43.460938 34.667969 -44.960938 33.230469 -45.667969 L 32.5625 -46.078125 C 31.675781 -46.589844 30.695312 -46.664062 29.730469 -46.300781 C 28.867188 -46.050781 28.132812 -45.375 27.730469 -44.488281 C 26.324219 -41.285156 24.851562 -36.992188 23.601562 -32.492188 C 20.300781 -24.652344 16.234375 -16.894531 12.386719 -12.082031 L 12.28125 -11.96875 C 12.285156 -11.859375 12.179688 -11.855469 12.074219 -11.746094 C 11.550781 -11.179688 9.871094 -9.488281 7.769531 -10.5 C 5.894531 -11.300781 5.183594 -18.886719 11.425781 -35.527344 C 12.125 -37.183594 11.507812 -39.226562 10.058594 -40.257812 L 9.277344 -40.773438 C 8.605469 -41.292969 7.730469 -41.480469 6.976562 -41.234375 C 6.117188 -40.984375 5.375 -40.523438 5.074219 -39.75 C -0.410156 -29.226562 -2.644531 -15.882812 -0.226562 -9.230469 C 0.496094 -7.300781 1.519531 -6.035156 2.949219 -5.542969 C 3.613281 -5.242188 4.382812 -5.050781 5.03125 -5.074219 C 5.792969 -5.101562 6.652344 -5.351562 7.402344 -5.703125 C 9.328125 -6.535156 11.222656 -8.234375 13.097656 -10.476562 C 13.308594 -10.703125 13.519531 -10.820312 13.621094 -11.039062 C 16.535156 -14.625 19.289062 -19.507812 21.824219 -24.597656 C 20.632812 -18.46875 20.085938 -12.578125 20.5625 -8.464844 C 20.898438 -5.21875 22.335938 -1.574219 25.398438 -1.03125 C 25.617188 -1.039062 25.945312 -0.945312 26.269531 -0.957031 C 28.550781 -1.039062 31.09375 -2.871094 34.007812 -6.347656 L 34.21875 -6.570312 C 37.238281 -10.269531 40.515625 -15.714844 44.273438 -23.023438 C 44.476562 -23.359375 44.351562 -23.898438 43.90625 -24.097656 Z M 43.90625 -24.097656 "/>
            </g>
        </g>
    </g>
    <g fill="#4d3e3e" fill-opacity="1">
        <g transform="translate(285.893023, 200.85416)">
            <g>
                <path d="M 43.367188 -23.96875 C 43.035156 -24.175781 42.601562 -24.160156 42.285156 -23.824219 C 38.980469 -19.136719 33.382812 -14.585938 27.03125 -9.898438 C 28.136719 -18.414062 29.011719 -27.144531 29.703125 -35.105469 C 30.007812 -38.703125 29.148438 -41.386719 27.339844 -43.277344 L 27 -43.59375 C 25.988281 -44.535156 24.566406 -44.808594 23.277344 -44.328125 C 21.996094 -43.738281 21.167969 -42.621094 21.105469 -41.3125 L 20.804688 -34.671875 C 20.308594 -30.414062 17.8125 -21.300781 14.003906 -15.402344 C 13.898438 -15.398438 13.898438 -15.398438 13.902344 -15.289062 C 13.796875 -15.175781 12.25 -12.835938 9.402344 -13.496094 C 8.742188 -13.6875 8.296875 -14 7.945312 -14.636719 C 6.554688 -16.976562 7.105469 -22.757812 9.4375 -30.453125 C 10.023438 -32.214844 9.191406 -34.140625 7.636719 -35.0625 L 6.417969 -35.667969 C 5.640625 -36.183594 4.660156 -36.257812 3.800781 -35.902344 C 2.941406 -35.652344 2.3125 -34.976562 2.019531 -34.097656 C -0.273438 -28.46875 -2.503906 -18.0625 0.644531 -12.199219 C 1.695312 -10.171875 3.371094 -8.925781 5.453125 -8.460938 C 6.003906 -8.261719 6.546875 -8.28125 7.089844 -8.300781 C 8.5 -8.351562 9.894531 -8.839844 11.269531 -9.976562 C 15.078125 -12.832031 18.011719 -18.808594 19.871094 -24.527344 C 19.351562 -17.878906 18.425781 -10.453125 17.390625 -3.023438 C 2.660156 7.402344 -13.097656 19.390625 -14.722656 34.558594 C -14.878906 36.195312 -14.714844 37.710938 -14.121094 39.101562 C -13.738281 40.609375 -12.023438 42.9375 -9.136719 44.683594 C -7.136719 45.804688 -4.160156 47 -0.25 46.859375 C 1.160156 46.808594 2.5625 46.539062 4.179688 46.152344 C 7.515625 45.273438 10.691406 42.875 14.007812 38.40625 C 20.132812 30.464844 24.128906 11.839844 26.785156 -7.714844 C 33.773438 -12.859375 39.898438 -17.757812 43.625 -22.894531 C 43.832031 -23.226562 43.816406 -23.660156 43.367188 -23.96875 Z M 7.171875 35.828125 C 3.878906 40.839844 -0.851562 42.316406 -2.789062 42.820312 C -5.917969 43.476562 -8.765625 42.929688 -10.785156 41.15625 C -11.679688 40.425781 -12.261719 39.46875 -12.621094 38.503906 L -12.734375 38.398438 C -13.097656 37.324219 -13.253906 36.027344 -13.085938 34.714844 C -11.640625 20.640625 2.945312 9.242188 17.035156 -0.835938 C 14.769531 14.570312 11.511719 29.582031 7.171875 35.828125 Z M 7.171875 35.828125 "/>
            </g>
        </g>
    </g>
    <g fill="#4d3e3e" fill-opacity="1">
        <g transform="translate(129.767344, 227.782568)">
            <g>
                <path d="M 1.921875 -11.171875 L 1.921875 0 L 3.359375 0 L 3.359375 -5.546875 L 8.3125 -5.546875 L 8.3125 -6.28125 L 3.359375 -6.28125 L 3.359375 -10.296875 L 9.125 -10.296875 L 9.125 -11.171875 Z M 1.921875 -11.171875 "/>
            </g>
        </g>
    </g>
    <g fill="#4d3e3e" fill-opacity="1">
        <g transform="translate(145.769802, 227.782568)">
            <g>
                <path d="M 4.21875 -8.15625 C 4.988281 -8.15625 5.585938 -8.046875 6.015625 -7.828125 C 6.441406 -7.609375 6.753906 -7.320312 6.953125 -6.96875 C 7.148438 -6.613281 7.265625 -6.207031 7.296875 -5.75 C 7.328125 -5.300781 7.34375 -4.835938 7.34375 -4.359375 L 7.34375 0 L 6.046875 0 L 6.046875 -0.78125 C 5.734375 -0.476562 5.335938 -0.238281 4.859375 -0.0625 C 4.378906 0.101562 3.90625 0.1875 3.4375 0.1875 C 2.976562 0.1875 2.570312 0.109375 2.21875 -0.046875 C 1.863281 -0.203125 1.566406 -0.40625 1.328125 -0.65625 C 1.097656 -0.914062 0.925781 -1.207031 0.8125 -1.53125 C 0.695312 -1.851562 0.640625 -2.175781 0.640625 -2.5 C 0.640625 -2.84375 0.703125 -3.179688 0.828125 -3.515625 C 0.953125 -3.859375 1.140625 -4.164062 1.390625 -4.4375 C 1.648438 -4.707031 1.96875 -4.925781 2.34375 -5.09375 C 2.71875 -5.269531 3.144531 -5.359375 3.625 -5.359375 C 4.101562 -5.359375 4.554688 -5.265625 4.984375 -5.078125 C 5.410156 -4.890625 5.765625 -4.628906 6.046875 -4.296875 L 6.046875 -4.984375 C 6.046875 -5.847656 5.914062 -6.492188 5.65625 -6.921875 C 5.394531 -7.347656 4.921875 -7.5625 4.234375 -7.5625 C 3.929688 -7.5625 3.664062 -7.523438 3.4375 -7.453125 C 3.21875 -7.378906 3.019531 -7.273438 2.84375 -7.140625 C 2.664062 -7.003906 2.503906 -6.835938 2.359375 -6.640625 C 2.210938 -6.441406 2.066406 -6.222656 1.921875 -5.984375 L 1.078125 -6.8125 C 1.234375 -6.96875 1.390625 -7.125 1.546875 -7.28125 C 1.710938 -7.445312 1.914062 -7.59375 2.15625 -7.71875 C 2.394531 -7.84375 2.679688 -7.945312 3.015625 -8.03125 C 3.347656 -8.113281 3.75 -8.15625 4.21875 -8.15625 Z M 6.046875 -3.15625 C 5.992188 -3.28125 5.914062 -3.425781 5.8125 -3.59375 C 5.707031 -3.769531 5.578125 -3.9375 5.421875 -4.09375 C 5.265625 -4.257812 5.070312 -4.394531 4.84375 -4.5 C 4.625 -4.613281 4.359375 -4.671875 4.046875 -4.671875 C 3.742188 -4.671875 3.460938 -4.609375 3.203125 -4.484375 C 2.953125 -4.367188 2.738281 -4.210938 2.5625 -4.015625 C 2.382812 -3.816406 2.25 -3.582031 2.15625 -3.3125 C 2.0625 -3.050781 2.015625 -2.773438 2.015625 -2.484375 C 2.015625 -2.148438 2.070312 -1.859375 2.1875 -1.609375 C 2.3125 -1.359375 2.46875 -1.144531 2.65625 -0.96875 C 2.851562 -0.789062 3.066406 -0.660156 3.296875 -0.578125 C 3.535156 -0.492188 3.757812 -0.453125 3.96875 -0.453125 C 4.175781 -0.453125 4.378906 -0.488281 4.578125 -0.5625 C 4.785156 -0.632812 4.984375 -0.734375 5.171875 -0.859375 C 5.359375 -0.992188 5.523438 -1.148438 5.671875 -1.328125 C 5.828125 -1.515625 5.953125 -1.71875 6.046875 -1.9375 Z M 6.046875 -3.15625 "/>
            </g>
        </g>
    </g>
    <g fill="#4d3e3e" fill-opacity="1">
        <g transform="translate(160.78316, 227.782568)">
            <g>
                <path d="M 6.359375 -6.15625 C 6.359375 -6.445312 6.285156 -6.710938 6.140625 -6.953125 C 5.992188 -7.203125 5.789062 -7.410156 5.53125 -7.578125 C 5.269531 -7.753906 4.960938 -7.894531 4.609375 -8 C 4.265625 -8.101562 3.898438 -8.15625 3.515625 -8.15625 C 3.140625 -8.15625 2.789062 -8.101562 2.46875 -8 C 2.144531 -7.90625 1.863281 -7.765625 1.625 -7.578125 C 1.382812 -7.390625 1.191406 -7.148438 1.046875 -6.859375 C 0.910156 -6.578125 0.84375 -6.253906 0.84375 -5.890625 C 0.84375 -5.378906 0.957031 -4.972656 1.1875 -4.671875 C 1.425781 -4.378906 1.71875 -4.140625 2.0625 -3.953125 C 2.414062 -3.773438 2.796875 -3.628906 3.203125 -3.515625 C 3.617188 -3.398438 4 -3.273438 4.34375 -3.140625 C 4.695312 -3.015625 4.988281 -2.847656 5.21875 -2.640625 C 5.457031 -2.441406 5.578125 -2.164062 5.578125 -1.8125 C 5.578125 -1.664062 5.550781 -1.507812 5.5 -1.34375 C 5.457031 -1.1875 5.375 -1.039062 5.25 -0.90625 C 5.125 -0.78125 4.945312 -0.671875 4.71875 -0.578125 C 4.5 -0.492188 4.21875 -0.453125 3.875 -0.453125 C 3.445312 -0.453125 3.085938 -0.515625 2.796875 -0.640625 C 2.503906 -0.773438 2.265625 -0.9375 2.078125 -1.125 C 1.890625 -1.3125 1.753906 -1.5 1.671875 -1.6875 C 1.597656 -1.882812 1.5625 -2.046875 1.5625 -2.171875 L 0.53125 -2.171875 C 0.53125 -1.867188 0.597656 -1.578125 0.734375 -1.296875 C 0.867188 -1.015625 1.078125 -0.757812 1.359375 -0.53125 C 1.640625 -0.3125 1.984375 -0.132812 2.390625 0 C 2.804688 0.125 3.285156 0.1875 3.828125 0.1875 C 4.804688 0.1875 5.539062 -0.0234375 6.03125 -0.453125 C 6.53125 -0.878906 6.78125 -1.445312 6.78125 -2.15625 C 6.78125 -2.664062 6.660156 -3.070312 6.421875 -3.375 C 6.179688 -3.6875 5.878906 -3.9375 5.515625 -4.125 C 5.160156 -4.3125 4.769531 -4.460938 4.34375 -4.578125 C 3.925781 -4.691406 3.535156 -4.8125 3.171875 -4.9375 C 2.804688 -5.070312 2.503906 -5.226562 2.265625 -5.40625 C 2.035156 -5.582031 1.921875 -5.835938 1.921875 -6.171875 C 1.921875 -6.304688 1.945312 -6.453125 2 -6.609375 C 2.050781 -6.765625 2.140625 -6.910156 2.265625 -7.046875 C 2.390625 -7.179688 2.554688 -7.289062 2.765625 -7.375 C 2.984375 -7.46875 3.253906 -7.515625 3.578125 -7.515625 C 3.890625 -7.515625 4.160156 -7.46875 4.390625 -7.375 C 4.628906 -7.289062 4.828125 -7.179688 4.984375 -7.046875 C 5.148438 -6.910156 5.269531 -6.757812 5.34375 -6.59375 C 5.414062 -6.4375 5.453125 -6.289062 5.453125 -6.15625 Z M 6.359375 -6.15625 "/>
            </g>
        </g>
    </g>
    <g fill="#4d3e3e" fill-opacity="1">
        <g transform="translate(174.839319, 227.782568)">
            <g>
                <path d="M 1.28125 -11.171875 L 1.28125 0 L 2.625 0 L 2.625 -4.609375 C 2.625 -4.816406 2.640625 -5.078125 2.671875 -5.390625 C 2.710938 -5.703125 2.800781 -6 2.9375 -6.28125 C 3.082031 -6.570312 3.296875 -6.820312 3.578125 -7.03125 C 3.867188 -7.238281 4.269531 -7.34375 4.78125 -7.34375 C 5.144531 -7.34375 5.4375 -7.273438 5.65625 -7.140625 C 5.875 -7.003906 6.039062 -6.820312 6.15625 -6.59375 C 6.269531 -6.375 6.34375 -6.113281 6.375 -5.8125 C 6.414062 -5.519531 6.4375 -5.210938 6.4375 -4.890625 L 6.4375 0 L 7.796875 0 L 7.796875 -5.265625 C 7.796875 -5.859375 7.710938 -6.34375 7.546875 -6.71875 C 7.378906 -7.101562 7.164062 -7.398438 6.90625 -7.609375 C 6.65625 -7.816406 6.375 -7.957031 6.0625 -8.03125 C 5.757812 -8.113281 5.472656 -8.15625 5.203125 -8.15625 C 4.828125 -8.15625 4.429688 -8.082031 4.015625 -7.9375 C 3.609375 -7.789062 3.226562 -7.515625 2.875 -7.109375 L 2.703125 -6.890625 L 2.625 -6.890625 L 2.625 -11.171875 Z M 1.28125 -11.171875 "/>
            </g>
        </g>
    </g>
    <g fill="#4d3e3e" fill-opacity="1">
        <g transform="translate(190.315321, 227.782568)">
            <g>
                <path d="M 1.78125 -7.96875 L 1.78125 0 L 3.140625 0 L 3.140625 -7.96875 Z M 1.59375 -10.5 C 1.59375 -10.257812 1.675781 -10.054688 1.84375 -9.890625 C 2.019531 -9.722656 2.222656 -9.640625 2.453125 -9.640625 C 2.691406 -9.640625 2.894531 -9.722656 3.0625 -9.890625 C 3.226562 -10.054688 3.3125 -10.257812 3.3125 -10.5 C 3.3125 -10.726562 3.226562 -10.925781 3.0625 -11.09375 C 2.894531 -11.269531 2.691406 -11.359375 2.453125 -11.359375 C 2.222656 -11.359375 2.019531 -11.269531 1.84375 -11.09375 C 1.675781 -10.925781 1.59375 -10.726562 1.59375 -10.5 Z M 1.59375 -10.5 "/>
            </g>
        </g>
    </g>
    <g fill="#4d3e3e" fill-opacity="1">
        <g transform="translate(201.627514, 227.782568)">
            <g>
                <path d="M 9.0625 -3.96875 C 9.0625 -3.414062 8.960938 -2.882812 8.765625 -2.375 C 8.578125 -1.875 8.304688 -1.429688 7.953125 -1.046875 C 7.597656 -0.671875 7.164062 -0.367188 6.65625 -0.140625 C 6.15625 0.078125 5.59375 0.1875 4.96875 0.1875 C 4.320312 0.1875 3.738281 0.0703125 3.21875 -0.15625 C 2.707031 -0.382812 2.273438 -0.6875 1.921875 -1.0625 C 1.566406 -1.445312 1.289062 -1.890625 1.09375 -2.390625 C 0.894531 -2.898438 0.796875 -3.425781 0.796875 -3.96875 C 0.796875 -4.519531 0.894531 -5.046875 1.09375 -5.546875 C 1.289062 -6.054688 1.566406 -6.503906 1.921875 -6.890625 C 2.273438 -7.273438 2.707031 -7.582031 3.21875 -7.8125 C 3.738281 -8.039062 4.320312 -8.15625 4.96875 -8.15625 C 5.59375 -8.15625 6.15625 -8.039062 6.65625 -7.8125 C 7.164062 -7.582031 7.597656 -7.273438 7.953125 -6.890625 C 8.304688 -6.503906 8.578125 -6.054688 8.765625 -5.546875 C 8.960938 -5.046875 9.0625 -4.519531 9.0625 -3.96875 Z M 7.546875 -3.96875 C 7.546875 -4.71875 7.460938 -5.320312 7.296875 -5.78125 C 7.140625 -6.25 6.929688 -6.609375 6.671875 -6.859375 C 6.421875 -7.117188 6.140625 -7.289062 5.828125 -7.375 C 5.523438 -7.46875 5.234375 -7.515625 4.953125 -7.515625 C 4.660156 -7.515625 4.359375 -7.46875 4.046875 -7.375 C 3.742188 -7.289062 3.460938 -7.117188 3.203125 -6.859375 C 2.941406 -6.609375 2.726562 -6.25 2.5625 -5.78125 C 2.394531 -5.320312 2.3125 -4.71875 2.3125 -3.96875 C 2.3125 -3.238281 2.394531 -2.640625 2.5625 -2.171875 C 2.726562 -1.710938 2.941406 -1.351562 3.203125 -1.09375 C 3.460938 -0.84375 3.742188 -0.671875 4.046875 -0.578125 C 4.359375 -0.492188 4.660156 -0.453125 4.953125 -0.453125 C 5.234375 -0.453125 5.523438 -0.492188 5.828125 -0.578125 C 6.140625 -0.671875 6.421875 -0.84375 6.671875 -1.09375 C 6.929688 -1.351562 7.140625 -1.710938 7.296875 -2.171875 C 7.460938 -2.640625 7.546875 -3.238281 7.546875 -3.96875 Z M 7.546875 -3.96875 "/>
            </g>
        </g>
    </g>
    <g fill="#4d3e3e" fill-opacity="1">
        <g transform="translate(217.885233, 227.782568)">
            <g>
                <path d="M 7.9375 0 L 7.9375 -5.171875 C 7.9375 -5.359375 7.921875 -5.617188 7.890625 -5.953125 C 7.859375 -6.296875 7.753906 -6.628906 7.578125 -6.953125 C 7.410156 -7.273438 7.132812 -7.554688 6.75 -7.796875 C 6.363281 -8.035156 5.820312 -8.15625 5.125 -8.15625 C 4.8125 -8.164062 4.460938 -8.101562 4.078125 -7.96875 C 3.703125 -7.832031 3.328125 -7.578125 2.953125 -7.203125 L 2.703125 -6.953125 L 2.625 -6.953125 L 2.625 -7.96875 L 1.28125 -7.96875 L 1.28125 0 L 2.625 0 L 2.625 -4.921875 C 2.625 -5.335938 2.679688 -5.691406 2.796875 -5.984375 C 2.921875 -6.285156 3.082031 -6.535156 3.28125 -6.734375 C 3.488281 -6.941406 3.722656 -7.09375 3.984375 -7.1875 C 4.242188 -7.289062 4.507812 -7.34375 4.78125 -7.34375 C 5.226562 -7.34375 5.570312 -7.253906 5.8125 -7.078125 C 6.0625 -6.898438 6.242188 -6.691406 6.359375 -6.453125 C 6.472656 -6.222656 6.539062 -5.988281 6.5625 -5.75 C 6.582031 -5.519531 6.59375 -5.351562 6.59375 -5.25 L 6.59375 0 Z M 7.9375 0 "/>
            </g>
        </g>
    </g>
    <g fill="#4d3e3e" fill-opacity="1">
        <g transform="translate(233.55268, 227.782568)">
            <g/>
        </g>
    </g>
    <g fill="#4d3e3e" fill-opacity="1">
        <g transform="translate(245.534908, 227.782568)">
            <g>
                <path d="M 0.59375 -2.828125 C 0.613281 -2.367188 0.734375 -1.953125 0.953125 -1.578125 C 1.171875 -1.203125 1.46875 -0.882812 1.84375 -0.625 C 2.21875 -0.363281 2.660156 -0.160156 3.171875 -0.015625 C 3.679688 0.117188 4.238281 0.1875 4.84375 0.1875 C 5.46875 0.1875 6.023438 0.113281 6.515625 -0.03125 C 7.015625 -0.175781 7.4375 -0.382812 7.78125 -0.65625 C 8.132812 -0.9375 8.40625 -1.273438 8.59375 -1.671875 C 8.789062 -2.066406 8.890625 -2.503906 8.890625 -2.984375 C 8.890625 -3.640625 8.722656 -4.175781 8.390625 -4.59375 C 8.054688 -5.019531 7.640625 -5.375 7.140625 -5.65625 C 6.648438 -5.9375 6.113281 -6.171875 5.53125 -6.359375 C 4.957031 -6.554688 4.421875 -6.757812 3.921875 -6.96875 C 3.429688 -7.1875 3.019531 -7.429688 2.6875 -7.703125 C 2.363281 -7.984375 2.203125 -8.351562 2.203125 -8.8125 C 2.203125 -9.0625 2.253906 -9.296875 2.359375 -9.515625 C 2.472656 -9.742188 2.640625 -9.941406 2.859375 -10.109375 C 3.078125 -10.273438 3.34375 -10.40625 3.65625 -10.5 C 3.976562 -10.601562 4.347656 -10.65625 4.765625 -10.65625 C 5.460938 -10.65625 6.050781 -10.507812 6.53125 -10.21875 C 7.019531 -9.925781 7.304688 -9.46875 7.390625 -8.84375 L 8.46875 -8.84375 C 8.40625 -9.226562 8.257812 -9.578125 8.03125 -9.890625 C 7.8125 -10.210938 7.53125 -10.484375 7.1875 -10.703125 C 6.851562 -10.921875 6.46875 -11.082031 6.03125 -11.1875 C 5.601562 -11.300781 5.15625 -11.359375 4.6875 -11.359375 C 4.195312 -11.359375 3.726562 -11.289062 3.28125 -11.15625 C 2.84375 -11.03125 2.457031 -10.84375 2.125 -10.59375 C 1.789062 -10.351562 1.523438 -10.046875 1.328125 -9.671875 C 1.128906 -9.304688 1.03125 -8.882812 1.03125 -8.40625 C 1.03125 -7.78125 1.191406 -7.273438 1.515625 -6.890625 C 1.835938 -6.503906 2.238281 -6.179688 2.71875 -5.921875 C 3.207031 -5.671875 3.734375 -5.457031 4.296875 -5.28125 C 4.859375 -5.101562 5.378906 -4.898438 5.859375 -4.671875 C 6.347656 -4.441406 6.75 -4.160156 7.0625 -3.828125 C 7.382812 -3.492188 7.546875 -3.050781 7.546875 -2.5 C 7.546875 -1.8125 7.289062 -1.304688 6.78125 -0.984375 C 6.28125 -0.671875 5.609375 -0.515625 4.765625 -0.515625 C 4.097656 -0.515625 3.5625 -0.597656 3.15625 -0.765625 C 2.75 -0.941406 2.441406 -1.148438 2.234375 -1.390625 C 2.023438 -1.640625 1.878906 -1.894531 1.796875 -2.15625 C 1.722656 -2.414062 1.679688 -2.640625 1.671875 -2.828125 Z M 0.59375 -2.828125 "/>
            </g>
        </g>
    </g>
    <g fill="#4d3e3e" fill-opacity="1">
        <g transform="translate(261.904292, 227.782568)">
            <g>
                <path d="M 0.484375 -7.34375 L 0.484375 -7.96875 L 1.859375 -7.96875 L 1.859375 -10.4375 L 3.21875 -10.4375 L 3.21875 -7.96875 L 5.15625 -7.96875 L 5.15625 -7.34375 L 3.21875 -7.34375 L 3.21875 -2.046875 C 3.21875 -1.910156 3.222656 -1.757812 3.234375 -1.59375 C 3.242188 -1.4375 3.273438 -1.285156 3.328125 -1.140625 C 3.378906 -0.992188 3.460938 -0.875 3.578125 -0.78125 C 3.691406 -0.6875 3.847656 -0.640625 4.046875 -0.640625 C 4.304688 -0.640625 4.519531 -0.734375 4.6875 -0.921875 C 4.863281 -1.117188 5.003906 -1.328125 5.109375 -1.546875 L 5.859375 -0.78125 C 5.335938 -0.257812 4.742188 0 4.078125 0 C 3.804688 0 3.535156 -0.046875 3.265625 -0.140625 C 3.003906 -0.234375 2.769531 -0.378906 2.5625 -0.578125 C 2.351562 -0.773438 2.179688 -1.023438 2.046875 -1.328125 C 1.921875 -1.640625 1.859375 -2.003906 1.859375 -2.421875 L 1.859375 -7.34375 Z M 0.484375 -7.34375 "/>
            </g>
        </g>
    </g>
    <g fill="#4d3e3e" fill-opacity="1">
        <g transform="translate(274.285356, 227.782568)">
            <g>
                <path d="M 9.0625 -3.96875 C 9.0625 -3.414062 8.960938 -2.882812 8.765625 -2.375 C 8.578125 -1.875 8.304688 -1.429688 7.953125 -1.046875 C 7.597656 -0.671875 7.164062 -0.367188 6.65625 -0.140625 C 6.15625 0.078125 5.59375 0.1875 4.96875 0.1875 C 4.320312 0.1875 3.738281 0.0703125 3.21875 -0.15625 C 2.707031 -0.382812 2.273438 -0.6875 1.921875 -1.0625 C 1.566406 -1.445312 1.289062 -1.890625 1.09375 -2.390625 C 0.894531 -2.898438 0.796875 -3.425781 0.796875 -3.96875 C 0.796875 -4.519531 0.894531 -5.046875 1.09375 -5.546875 C 1.289062 -6.054688 1.566406 -6.503906 1.921875 -6.890625 C 2.273438 -7.273438 2.707031 -7.582031 3.21875 -7.8125 C 3.738281 -8.039062 4.320312 -8.15625 4.96875 -8.15625 C 5.59375 -8.15625 6.15625 -8.039062 6.65625 -7.8125 C 7.164062 -7.582031 7.597656 -7.273438 7.953125 -6.890625 C 8.304688 -6.503906 8.578125 -6.054688 8.765625 -5.546875 C 8.960938 -5.046875 9.0625 -4.519531 9.0625 -3.96875 Z M 7.546875 -3.96875 C 7.546875 -4.71875 7.460938 -5.320312 7.296875 -5.78125 C 7.140625 -6.25 6.929688 -6.609375 6.671875 -6.859375 C 6.421875 -7.117188 6.140625 -7.289062 5.828125 -7.375 C 5.523438 -7.46875 5.234375 -7.515625 4.953125 -7.515625 C 4.660156 -7.515625 4.359375 -7.46875 4.046875 -7.375 C 3.742188 -7.289062 3.460938 -7.117188 3.203125 -6.859375 C 2.941406 -6.609375 2.726562 -6.25 2.5625 -5.78125 C 2.394531 -5.320312 2.3125 -4.71875 2.3125 -3.96875 C 2.3125 -3.238281 2.394531 -2.640625 2.5625 -2.171875 C 2.726562 -1.710938 2.941406 -1.351562 3.203125 -1.09375 C 3.460938 -0.84375 3.742188 -0.671875 4.046875 -0.578125 C 4.359375 -0.492188 4.660156 -0.453125 4.953125 -0.453125 C 5.234375 -0.453125 5.523438 -0.492188 5.828125 -0.578125 C 6.140625 -0.671875 6.421875 -0.84375 6.671875 -1.09375 C 6.929688 -1.351562 7.140625 -1.710938 7.296875 -2.171875 C 7.460938 -2.640625 7.546875 -3.238281 7.546875 -3.96875 Z M 7.546875 -3.96875 "/>
            </g>
        </g>
    </g>
    <g fill="#4d3e3e" fill-opacity="1">
        <g transform="translate(290.543068, 227.782568)">
            <g>
                <path d="M 1.28125 -7.96875 L 1.28125 0 L 2.625 0 L 2.625 -4.8125 C 2.625 -5.25 2.675781 -5.617188 2.78125 -5.921875 C 2.882812 -6.222656 3.015625 -6.46875 3.171875 -6.65625 C 3.328125 -6.851562 3.5 -6.992188 3.6875 -7.078125 C 3.882812 -7.160156 4.078125 -7.203125 4.265625 -7.203125 C 4.503906 -7.203125 4.726562 -7.125 4.9375 -6.96875 C 5.144531 -6.8125 5.296875 -6.664062 5.390625 -6.53125 L 5.9375 -7.515625 C 5.84375 -7.640625 5.726562 -7.742188 5.59375 -7.828125 C 5.457031 -7.910156 5.320312 -7.976562 5.1875 -8.03125 C 5.0625 -8.082031 4.941406 -8.113281 4.828125 -8.125 C 4.710938 -8.144531 4.628906 -8.15625 4.578125 -8.15625 C 4.128906 -8.15625 3.753906 -8.03125 3.453125 -7.78125 C 3.160156 -7.539062 2.921875 -7.179688 2.734375 -6.703125 L 2.625 -6.703125 L 2.625 -7.96875 Z M 1.28125 -7.96875 "/>
            </g>
        </g>
    </g>
    <g fill="#4d3e3e" fill-opacity="1">
        <g transform="translate(303.035798, 227.782568)">
            <g>
                <path d="M 8.359375 -3.640625 L 8.359375 -3.96875 C 8.359375 -4.6875 8.253906 -5.304688 8.046875 -5.828125 C 7.847656 -6.347656 7.578125 -6.773438 7.234375 -7.109375 C 6.890625 -7.453125 6.488281 -7.707031 6.03125 -7.875 C 5.570312 -8.050781 5.085938 -8.140625 4.578125 -8.140625 C 4.035156 -8.140625 3.535156 -8.046875 3.078125 -7.859375 C 2.617188 -7.671875 2.21875 -7.398438 1.875 -7.046875 C 1.539062 -6.691406 1.273438 -6.257812 1.078125 -5.75 C 0.890625 -5.25 0.796875 -4.675781 0.796875 -4.03125 C 0.796875 -3.5 0.878906 -2.976562 1.046875 -2.46875 C 1.210938 -1.96875 1.460938 -1.519531 1.796875 -1.125 C 2.128906 -0.726562 2.550781 -0.410156 3.0625 -0.171875 C 3.582031 0.0664062 4.191406 0.1875 4.890625 0.1875 C 5.578125 0.1875 6.207031 0.0664062 6.78125 -0.171875 C 7.351562 -0.410156 7.851562 -0.753906 8.28125 -1.203125 L 7.765625 -1.703125 C 7.546875 -1.515625 7.335938 -1.335938 7.140625 -1.171875 C 6.941406 -1.015625 6.738281 -0.882812 6.53125 -0.78125 C 6.332031 -0.675781 6.125 -0.59375 5.90625 -0.53125 C 5.6875 -0.476562 5.445312 -0.453125 5.1875 -0.453125 C 4.882812 -0.453125 4.566406 -0.492188 4.234375 -0.578125 C 3.898438 -0.671875 3.585938 -0.832031 3.296875 -1.0625 C 3.015625 -1.300781 2.773438 -1.628906 2.578125 -2.046875 C 2.390625 -2.460938 2.296875 -2.992188 2.296875 -3.640625 Z M 2.296875 -4.28125 C 2.296875 -4.695312 2.335938 -5.101562 2.421875 -5.5 C 2.515625 -5.90625 2.65625 -6.257812 2.84375 -6.5625 C 3.03125 -6.875 3.265625 -7.125 3.546875 -7.3125 C 3.835938 -7.5 4.179688 -7.59375 4.578125 -7.59375 C 5.335938 -7.59375 5.925781 -7.296875 6.34375 -6.703125 C 6.757812 -6.117188 6.96875 -5.3125 6.96875 -4.28125 Z M 2.296875 -4.28125 "/>
            </g>
        </g>
    </g>
    <path fill="#4d3e3e"
          d="M 80.050781 218.296875 C 76.289062 219.257812 72.261719 220.972656 69.640625 223.1875 C 66.808594 225.589844 65.613281 227.921875 65.398438 229.925781 C 65.171875 232.035156 66.003906 233.824219 67.277344 235.074219 C 72.296875 240 80.683594 239.976562 87.484375 236.363281 C 91.679688 234.132812 94.964844 232.015625 97.523438 230.050781 C 96.800781 231.996094 95.742188 233.941406 94.289062 235.851562 C 88.511719 243.453125 80.425781 247.335938 72.808594 249.265625 C 61.320312 252.179688 50.878906 250.667969 50.878906 250.667969 C 50.515625 250.613281 50.175781 250.867188 50.121094 251.230469 C 50.070312 251.597656 50.320312 251.9375 50.6875 251.988281 C 50.6875 251.988281 61.375 253.546875 73.136719 250.5625 C 81.019531 248.5625 89.375 244.527344 95.351562 236.660156 C 97.394531 233.972656 98.699219 231.230469 99.421875 228.503906 C 100.875 227.25 102.023438 226.066406 102.917969 224.964844 C 104.109375 223.503906 104.863281 222.179688 105.300781 221.019531 C 105.386719 220.984375 105.476562 220.949219 105.566406 220.90625 C 107.585938 220 108.5 217.914062 108.9375 215.25 C 109.523438 211.664062 109.28125 206.988281 110.574219 203.265625 C 112.601562 197.414062 117.429688 195.15625 120.886719 195.9375 C 121.246094 196.019531 121.601562 195.792969 121.683594 195.433594 C 121.765625 195.074219 121.539062 194.714844 121.179688 194.636719 C 117.242188 193.742188 111.625 196.160156 109.308594 202.828125 C 107.996094 206.621094 108.214844 211.382812 107.617188 215.035156 C 107.324219 216.828125 106.851562 218.347656 105.761719 219.234375 C 106.007812 217.3125 105.292969 216.027344 104.445312 215.472656 C 103.992188 215.179688 103.492188 215.066406 103.007812 215.136719 C 101.03125 215.421875 100.421875 217.402344 101.015625 219.074219 C 101.363281 220.042969 102.105469 220.875 103.144531 221.167969 C 103.335938 221.222656 103.53125 221.257812 103.742188 221.273438 C 103.328125 222.132812 102.726562 223.085938 101.882812 224.121094 C 101.324219 224.808594 100.664062 225.527344 99.886719 226.273438 C 100.632812 221.421875 99.664062 216.683594 97.882812 212.464844 C 94.859375 205.300781 89.484375 199.671875 86.328125 197.613281 C 81.480469 194.449219 77.441406 193.125 74.40625 193.113281 C 72.242188 193.101562 70.554688 193.746094 69.390625 194.855469 C 68.210938 195.972656 67.546875 197.566406 67.484375 199.503906 C 67.398438 202.226562 68.515625 205.660156 71.0625 209.300781 C 73.519531 212.8125 76.875 215.996094 80.050781 218.296875 Z M 98.21875 227.777344 C 99.484375 222.589844 98.546875 217.472656 96.652344 212.988281 C 93.753906 206.117188 88.621094 200.707031 85.597656 198.734375 C 81.035156 195.757812 77.257812 194.460938 74.402344 194.449219 C 72.640625 194.4375 71.257812 194.925781 70.308594 195.824219 C 69.367188 196.714844 68.871094 198 68.820312 199.546875 C 68.738281 202.046875 69.816406 205.1875 72.160156 208.535156 C 74.78125 212.285156 78.464844 215.667969 81.78125 217.902344 C 83.496094 217.5625 85.09375 217.398438 86.402344 217.433594 C 87.679688 217.46875 88.695312 217.703125 89.332031 218.105469 C 89.898438 218.46875 90.214844 218.960938 90.261719 219.5625 C 90.332031 220.414062 90.101562 221.011719 89.707031 221.410156 C 89.164062 221.953125 88.199219 222.148438 86.929688 221.871094 C 85.496094 221.558594 83.589844 220.648438 81.527344 219.308594 C 77.65625 220.140625 73.257812 221.878906 70.507812 224.207031 C 68.023438 226.3125 66.914062 228.3125 66.726562 230.070312 C 66.546875 231.730469 67.210938 233.136719 68.214844 234.121094 C 72.839844 238.664062 80.585938 238.515625 86.855469 235.183594 C 91.867188 232.523438 95.550781 230.03125 98.21875 227.777344 Z M 83.464844 218.960938 C 84.886719 219.78125 86.179688 220.339844 87.214844 220.566406 C 87.621094 220.65625 87.980469 220.691406 88.28125 220.652344 C 88.480469 220.628906 88.648438 220.578125 88.761719 220.464844 C 88.929688 220.296875 88.960938 220.027344 88.929688 219.667969 C 88.910156 219.40625 88.691406 219.25 88.394531 219.117188 C 87.894531 218.894531 87.199219 218.789062 86.363281 218.769531 C 85.511719 218.746094 84.527344 218.8125 83.464844 218.960938 Z M 104.257812 219.921875 C 104.332031 219.65625 104.386719 219.398438 104.421875 219.15625 C 104.589844 218.027344 104.347656 217.195312 103.902344 216.746094 C 103.691406 216.539062 103.445312 216.425781 103.199219 216.460938 C 102.382812 216.578125 102.085938 217.296875 102.144531 218.007812 C 102.199219 218.730469 102.59375 219.488281 103.285156 219.800781 C 103.566406 219.929688 103.890625 219.972656 104.257812 219.921875 Z M 104.257812 219.921875 "
          fill-opacity="1" fill-rule="evenodd"/>
</svg>